<?xml version="1.0" encoding="UTF-8" standalone="no"?>
<!-- Created with Inkscape (http://www.inkscape.org/) -->

<svg
   xmlns:dc="http://purl.org/dc/elements/1.1/"
   xmlns:cc="http://creativecommons.org/ns#"
   xmlns:rdf="http://www.w3.org/1999/02/22-rdf-syntax-ns#"
   xmlns:svg="http://www.w3.org/2000/svg"
   xmlns="http://www.w3.org/2000/svg"
   version="1.2"
   width="31.322222"
   height="39.596298"
   viewBox="2.83465 -5.6693 31.322221 53.455002"
   id="Calque_1"
   xml:space="preserve"><metadata
     id="metadata13"><rdf:RDF><cc:Work
         rdf:about=""><dc:format>image/svg+xml</dc:format><dc:type
           rdf:resource="http://purl.org/dc/dcmitype/StillImage" /><dc:title></dc:title></cc:Work></rdf:RDF></metadata><defs
     id="defs11" /><path
     d="M 0.70326073,15.0147 H 5.8152607 v 12.661 h -3.979 v 0.8 h 3.979 v 1.801 H 0.70326073 v -15.262 z m 29.07300027,0 v 12.661 h 3.98 v 0.8 h -3.98 v 1.801 h 5.112 v -15.262 h -5.112 z m -11.581,26.321 h 7.961 v 0.8 h -7.961 v 1.6 h 9.262 v -10.477 h -9.262 v 8.077 z m -10.06,2.399 h 9.262 v -1.6 h -7.961 v -0.8 h 7.961 v -8.076 h -9.262 v 10.476 z m 9.661,-45.354 c -2.135,0 -3.906,1.63699996 -4.288,3.799 h 8.574 c -0.381,-2.16100004 -2.153,-3.799 -4.286,-3.799 z m 8.33,15.115 h -16.66 V 2.9527 h 16.66 v 10.543 z m -5.515,-6.711 c 0,0.5700001 0.462,1.0320001 1.033,1.0320001 0.57,0 1.032,-0.462 1.032,-1.0320001 0,-0.571 -0.462,-1.034 -1.032,-1.034 -0.571,0 -1.033,0.462 -1.033,1.034 z m -7.696,0 c 0,0.5700001 0.462,1.0320001 1.032,1.0320001 0.57,0 1.033,-0.462 1.033,-1.0320001 0,-0.571 -0.463,-1.034 -1.033,-1.034 -0.57,0 -1.032,0.462 -1.032,1.034 z m -0.485,4.898 h 1.98 V 9.7497001 h -1.98 V 11.6827 z m 2.754,0 h 2.425 V 9.7497001 h -2.425 V 11.6827 z m 3.198,0 h 2.027 V 9.7497001 h -2.027 V 11.6827 z m 4.778,-1.9329999 h -1.979 V 11.6827 h 1.979 V 9.7497001 z m -14.467,-0.313 V 6.1967 c -0.065,-0.003 -0.131,-0.012 -0.199,-0.012 -1.4730003,0 -2.6650003,0.729 -2.6650003,1.6320001 0,0.901 1.192,1.633 2.6650003,1.633 0.068,0 0.134,-0.01 0.199,-0.013 z M 27.097261,6.1847 c -0.067,0 -0.134,0.009 -0.199,0.012 v 3.2400001 c 0.065,0.003 0.132,0.013 0.199,0.013 1.473,0 2.665,-0.731 2.665,-1.633 0,-0.9020001 -1.192,-1.6320001 -2.665,-1.6320001 z m 1.907,8.379 v 17.924 H 6.5882607 v -17.924 c 0,-0.16 0.134,-0.295 0.293,-0.295 H 28.711261 c 0.159,-0.001 0.293,0.134 0.293,0.295 z m -6.522,8.815 c 0,-2.589 -2.098,-4.688 -4.688,-4.688 -2.588,0 -4.686,2.099 -4.686,4.688 0,2.59 2.098,4.688 4.686,4.688 2.591,-0.001 4.688,-2.099 4.688,-4.688 z m -4.687,-2.828 c -1.56,0 -2.826,1.265 -2.826,2.828 0,1.562 1.267,2.826 2.826,2.826 1.562,0 2.828,-1.265 2.828,-2.826 0,-1.563 -1.267,-2.828 -2.828,-2.828 z"
     id="path3" /></svg>